<svg version="1.1" id="Layer_1" xmlns="http://www.w3.org/2000/svg" xmlns:xlink="http://www.w3.org/1999/xlink" x="0px" y="0px"
	 width="100%" viewBox="0 0 1920 600" enable-background="new 0 0 1920 600" xml:space="preserve">
<path fill="#FFFFFF" opacity="1.000000" stroke="none" 
	d="
M1.342179,400.221283 
	C1.000000,267.645782 1.000000,135.291550 1.000000,2.468657 
	C1.204747,1.760793 1.421278,1.532776 1.824796,1.157974 
	C319.020905,1.000000 636.041809,1.000000 953.531372,1.000000 
	C952.965271,4.963796 949.130310,4.982996 946.312439,6.286705 
	C938.127441,10.073509 933.269165,16.586287 930.775208,24.970886 
	C930.228394,26.809256 929.808655,28.447197 927.838135,29.732059 
	C920.277100,31.874184 912.719177,32.038368 905.132202,34.155388 
	C885.963318,39.550228 867.651428,46.074162 850.122314,55.612923 
	C835.660706,62.238506 823.653259,71.709412 812.101440,82.431030 
	C804.692200,87.479439 799.246338,94.114304 792.977905,100.368660 
	C787.480591,106.783401 782.651062,113.275902 777.763489,120.167557 
	C771.341553,129.215256 765.864075,138.408310 761.162598,148.479187 
	C757.483643,157.037033 753.640564,165.135300 750.948120,174.108704 
	C748.838196,181.144623 747.044189,187.856583 745.968140,195.171478 
	C744.172485,206.608475 744.028015,217.671783 745.032654,229.198853 
	C743.601318,238.383133 744.780212,247.056412 745.859741,255.720352 
	C746.365723,259.781464 748.691101,261.823944 752.945618,261.569031 
	C755.078491,261.441223 757.231445,261.485260 759.811768,261.566833 
	C763.837524,261.415466 767.427002,261.501617 771.465698,261.532349 
	C775.504700,261.426666 779.094849,261.523285 783.124939,261.538574 
	C788.211731,261.707031 792.744690,260.210480 797.854004,260.626953 
	C798.901489,260.687286 799.502075,260.744171 800.560974,260.890381 
	C801.325745,261.038971 801.630554,261.115448 802.398193,261.300720 
	C804.517822,261.637573 806.185242,261.586090 807.849548,261.585999 
	C909.768127,261.579254 1011.686646,261.602722 1114.089722,261.569702 
	C1119.340210,261.330383 1124.108032,261.457153 1129.345459,261.509460 
	C1133.855469,261.406586 1137.895874,261.463562 1142.396240,261.520874 
	C1146.499512,261.415497 1150.143311,261.504517 1154.227295,261.526367 
	C1156.484497,261.517456 1158.301147,261.534088 1160.117920,261.531830 
	C1167.042358,261.523193 1167.955688,261.058777 1169.004272,254.406616 
	C1170.853027,242.677872 1171.841309,230.859329 1171.139526,218.551270 
	C1170.221436,213.131424 1170.957764,207.948883 1169.199219,202.632751 
	C1168.550293,193.495575 1166.753540,185.025681 1163.633057,176.434875 
	C1160.949463,166.343506 1157.568237,156.937927 1152.470703,147.811066 
	C1147.969604,135.959335 1141.574341,125.640182 1133.722168,115.761955 
	C1128.032715,105.162140 1119.651855,97.438545 1110.601318,89.842751 
	C1100.526367,79.031212 1089.114746,70.469948 1076.512939,62.829861 
	C1061.682861,51.914684 1044.999023,45.808578 1027.743408,40.029961 
	C1016.038635,35.265457 1004.158691,32.810238 991.694214,31.085621 
	C988.094360,29.525740 987.612000,26.283892 987.170959,23.504425 
	C985.684570,14.136975 979.312744,9.439098 971.435730,5.925441 
	C969.054443,4.863276 966.369934,4.224524 964.935791,1.375953 
	C1283.020874,1.000000 1601.041870,1.000000 1919.531372,1.000000 
	C1920.239136,1.204829 1920.467163,1.421335 1920.842041,1.824758 
	C1921.000000,201.020889 1921.000000,400.041779 1921.000000,599.531372 
	C1920.795166,600.239136 1920.578613,600.467224 1920.175293,600.842041 
	C1357.979126,601.000000 795.958191,601.000000 233.468658,601.000000 
	C233.496735,598.155518 235.944580,598.845337 237.691208,598.567261 
	C271.513428,593.182312 303.079803,581.676208 332.386871,563.938049 
	C345.784424,555.829224 357.107819,545.270447 367.648285,533.876648 
	C382.587799,517.727478 394.833923,499.741943 402.915588,479.153290 
	C408.693146,464.434631 411.571747,449.164581 411.737915,433.295624 
	C411.958588,412.222046 410.750946,391.364044 405.168335,370.907196 
	C403.267548,363.941833 400.104797,357.516541 397.447510,350.872986 
	C396.910004,349.529205 396.256409,347.770630 394.274811,348.553345 
	C392.496338,349.255859 392.700287,350.967743 393.125397,352.443085 
	C394.417572,356.927490 395.877991,361.367889 397.515747,365.731812 
	C404.104156,383.287262 406.447418,401.448792 406.434021,420.139526 
	C406.422119,436.709320 405.827362,453.055145 400.705597,469.031158 
	C393.604675,491.180634 381.956299,510.522766 366.015411,527.362976 
	C333.074585,562.162231 292.061310,581.700562 245.313538,588.758179 
	C199.205994,595.719116 153.879135,592.087708 110.775063,572.498535 
	C96.395416,565.963501 83.773048,556.611877 72.021820,546.208923 
	C40.449421,518.259094 22.741085,482.852966 17.710224,441.270020 
	C13.214458,404.109955 26.048639,371.941040 49.269279,343.752563 
	C72.492950,315.560394 101.351997,295.280365 137.077087,285.776367 
	C152.104431,281.778687 167.411667,279.601593 183.003418,279.656769 
	C187.254044,279.671814 196.060806,272.084686 196.514359,268.038971 
	C196.764633,265.806305 194.882858,266.368744 193.754532,266.363373 
	C186.589523,266.329224 179.396454,265.896423 172.263855,266.465851 
	C153.437332,267.968781 134.923218,271.253754 117.054695,277.566345 
	C74.599731,292.564850 42.226704,319.604431 20.014826,358.823212 
	C13.483364,370.355560 8.501501,382.467529 5.276509,395.312653 
	C4.911245,396.767517 4.554278,398.227081 3.504757,399.840576 
	C2.758687,400.432739 2.238844,400.529968 1.342179,400.221283 
z"/>
<path fill="#020200" opacity="1.000000" stroke="none" 
	d="
M964.541931,1.000000 
	C969.602295,4.729945 975.543640,5.982036 980.335571,9.555915 
	C984.001099,12.289681 986.463074,15.153475 987.296631,19.672298 
	C987.921814,23.061602 989.151672,26.339369 990.295044,29.985706 
	C994.378723,33.402313 995.776855,37.704876 996.323975,42.839302 
	C996.388000,45.433659 995.863281,47.536472 995.392273,49.630054 
	C995.090454,50.971760 995.183777,53.116146 993.145508,52.817261 
	C991.616516,52.593056 991.126038,50.791996 990.944397,49.247974 
	C990.826599,48.246944 991.054382,47.271465 991.345825,45.930584 
	C991.470703,45.064911 991.636414,44.613823 991.921021,44.205143 
	C991.888855,44.223072 991.856750,44.241005 991.694214,44.486111 
	C991.193054,45.951675 991.221313,47.812141 989.671997,47.874813 
	C987.902222,47.946396 988.053345,46.175751 987.966919,44.434910 
	C986.973389,48.530800 986.322876,52.274036 985.938477,56.415497 
	C985.388306,58.736305 984.004822,60.786297 986.576233,62.450180 
	C987.663513,63.153759 989.828796,63.420570 988.686768,65.527931 
	C987.884583,67.008263 986.289978,67.062920 984.757324,66.852356 
	C983.938721,66.739906 983.169067,66.463264 982.137939,65.924545 
	C981.522583,65.428291 981.199524,65.112663 980.630493,64.583321 
	C980.141296,64.161758 979.927795,63.927368 979.739319,63.671555 
	C979.558716,63.426491 979.620911,63.517773 980.168945,64.177246 
	C980.763123,64.713722 981.088013,65.044426 981.602905,65.695442 
	C982.415588,67.941635 982.987366,69.891220 982.434082,72.323395 
	C981.554688,73.359100 980.716492,73.246208 979.937927,72.959938 
	C977.616211,72.106209 975.689880,72.302429 974.504944,74.781273 
	C973.386841,77.120293 973.642822,79.313263 975.297302,81.292496 
	C976.598511,82.849106 978.196411,84.309586 980.122498,84.700706 
	C986.494019,85.994530 991.989746,89.811066 998.546509,90.640884 
	C1007.540344,91.779137 1012.446655,97.071739 1014.463135,106.028320 
	C1015.869507,112.275002 1016.442444,118.426651 1016.417603,124.754974 
	C1016.348267,142.378265 1016.523743,160.003601 1016.310974,177.624603 
	C1016.250305,182.648010 1017.351807,186.783600 1021.644165,190.201874 
	C1025.475464,193.709732 1029.110840,196.858170 1033.196777,200.019089 
	C1038.146729,203.907990 1042.126831,208.359344 1047.064575,212.247009 
	C1051.435791,216.159012 1055.200806,220.254349 1060.271484,223.351562 
	C1065.519287,226.947891 1069.872925,231.875397 1077.281006,229.903519 
	C1085.177612,229.011826 1092.505981,227.197327 1100.195312,225.275513 
	C1104.473022,224.675888 1108.399170,223.738678 1110.873901,228.373459 
	C1112.168457,230.797699 1114.330200,229.245346 1116.504150,228.676544 
	C1119.831543,229.655380 1118.954834,231.835220 1117.760132,233.301239 
	C1113.940308,237.988235 1113.427002,244.404984 1109.305420,248.899597 
	C1107.786377,250.556244 1109.274658,251.559479 1110.414429,252.510712 
	C1112.615967,254.348190 1114.499268,256.380096 1114.910889,259.796143 
	C1114.831055,260.494965 1114.758545,260.777618 1114.453125,261.450439 
	C1113.066528,262.802155 1111.681030,262.471710 1110.383545,262.471466 
	C1007.546265,262.454224 904.708923,262.547668 801.407227,262.261475 
	C800.942810,262.085815 801.006653,262.107819 800.979248,262.127563 
	C799.580017,259.838470 801.498901,258.833557 802.802734,257.674103 
	C805.830994,254.980942 809.480469,253.321426 813.753967,251.476669 
	C808.340027,250.782410 806.603760,247.077530 805.082153,242.742126 
	C804.041748,239.026871 801.553223,236.421143 800.330078,233.176453 
	C799.323120,230.504990 799.763611,228.804428 803.045288,229.495087 
	C806.385742,230.198090 807.920837,228.458099 809.232666,225.500488 
	C812.183167,224.234192 814.753723,225.098495 817.734314,225.631302 
	C824.637573,226.956116 831.049072,228.679779 837.961914,229.876007 
	C844.091797,231.849762 849.069641,230.083176 853.676880,226.660858 
	C855.667847,225.181915 857.724426,223.784958 859.818237,221.860870 
	C864.130127,218.186203 868.609131,215.242691 872.284119,210.851318 
	C878.065247,205.617905 884.529358,201.722015 889.785645,195.808868 
	C890.385437,195.154663 890.683716,194.713165 891.101196,194.463043 
	C900.671326,188.729599 902.132080,179.968628 901.783997,169.586090 
	C901.143066,150.464493 901.577209,131.305954 901.610596,112.162880 
	C901.630005,101.035927 907.677917,93.874710 918.566223,92.503281 
	C926.370972,91.520233 933.263489,88.414619 939.865112,84.428581 
	C947.297729,79.940811 947.524719,71.395050 940.378601,66.440796 
	C939.666809,65.947273 939.247742,65.241600 938.887817,64.044205 
	C937.643921,56.592445 933.750366,50.729618 930.310974,44.240540 
	C928.821838,39.295067 928.811768,34.488800 927.927124,29.465715 
	C928.423950,27.500830 931.027222,26.567526 928.740234,24.069393 
	C927.890381,23.141026 930.271606,20.325281 931.594849,18.613623 
	C934.646912,14.665575 937.754517,10.760492 940.820679,6.823267 
	C941.187378,6.352296 941.158936,5.556876 942.100769,5.649261 
	C946.563599,6.087015 949.861694,3.206375 953.797852,1.283519 
	C957.361267,1.000000 960.722595,1.000000 964.541931,1.000000 
z"/>
<path fill="#ED1F28" opacity="1.000000" stroke="none" 
	d="
M2.584611,400.371094 
	C22.906281,327.202637 71.562965,285.180695 144.099945,269.061005 
	C162.256073,265.026215 180.752975,264.526428 200.473129,265.215393 
	C196.401566,270.521667 192.851578,275.390839 189.008698,280.016754 
	C187.766083,281.512573 185.516174,280.704132 183.736282,280.736023 
	C153.588135,281.276215 124.877342,287.426025 98.751709,303.067719 
	C72.588600,318.731842 50.849716,338.993195 35.522774,365.649780 
	C17.697042,396.652283 13.349245,429.435638 22.974310,463.916718 
	C35.888916,510.182312 63.099823,545.495667 105.411011,568.318237 
	C128.179962,580.599854 153.155319,587.422058 178.847397,589.502991 
	C216.663864,592.565796 254.089401,589.885132 289.990051,575.948669 
	C327.551239,561.367554 359.327026,539.199829 382.006836,505.314392 
	C397.605621,482.008545 405.134155,456.297577 405.547821,428.131836 
	C405.933105,401.898560 401.533813,376.787476 391.724487,352.542725 
	C390.712585,350.041656 390.071045,347.988922 393.613281,346.649841 
	C396.078888,345.717834 396.852234,346.037415 397.967834,348.433167 
	C407.910614,369.785187 411.741058,392.391174 412.884094,415.735077 
	C416.379639,487.123199 380.607697,535.855591 322.474884,570.878784 
	C295.283234,587.260925 264.958527,596.064880 233.219330,600.661987 
	C211.312439,601.000000 189.624878,601.000000 167.468658,601.000000 
	C147.700241,599.125244 129.006622,594.560974 111.156487,587.112183 
	C92.811432,579.456909 75.509674,569.730652 60.542942,556.508057 
	C52.963379,549.811768 47.057251,541.397400 40.043640,534.063721 
	C21.489977,514.663330 11.378293,490.715790 3.676173,465.524719 
	C2.750656,462.497681 2.136602,459.398895 2.004821,455.817017 
	C1.575240,452.328247 1.400199,449.230347 1.515616,445.669678 
	C1.515195,433.373566 1.515720,421.525177 1.514974,409.216614 
	C1.732772,406.080994 0.919404,403.299927 2.584611,400.371094 
z"/>
<path fill="#FFFEFE" opacity="1.000000" stroke="none" 
	d="
M2.565787,455.782227 
	C10.218521,487.677795 24.729088,515.086365 46.563255,539.742676 
	C77.024345,574.140930 115.497681,591.087646 159.286987,598.998047 
	C161.736099,599.440491 164.189819,599.857483 166.820694,600.643188 
	C112.312439,601.000000 57.624878,601.000000 2.468657,601.000000 
	C1.760810,600.795227 1.532776,600.578674 1.157949,600.175171 
	C1.000000,552.312439 1.000000,504.624878 1.000000,456.468658 
	C1.360299,455.655579 1.788314,455.509430 2.565787,455.782227 
z"/>
<path fill="#DE474C" opacity="1.000000" stroke="none" 
	d="
M1.690280,407.718750 
	C1.977225,420.350769 2.008156,432.785980 1.964340,445.695557 
	C1.718605,446.260559 1.547616,446.351196 1.188314,446.220917 
	C1.000000,433.645782 1.000000,421.291534 1.000000,408.468658 
	C1.144756,407.840637 1.289511,407.681274 1.690280,407.718750 
z"/>
<path fill="#EDECEC" opacity="1.000000" stroke="none" 
	d="
M1.000000,446.454102 
	C1.000000,446.000000 1.456607,446.023346 1.673102,446.096619 
	C2.235989,449.177551 2.582383,452.185181 2.888166,455.597961 
	C2.436971,456.006287 2.026387,456.009521 1.307901,456.006378 
	C1.000000,452.969391 1.000000,449.938812 1.000000,446.454102 
z"/>
<path fill="#EDECEC" opacity="1.000000" stroke="none" 
	d="
M1.929304,407.509399 
	C1.794253,407.993286 1.642212,408.070984 1.245085,408.074341 
	C1.000000,405.629425 1.000000,403.258881 1.000000,400.444153 
	C1.407771,399.995819 1.815541,399.991638 2.529119,399.991394 
	C2.527390,402.364594 2.219852,404.733887 1.929304,407.509399 
z"/>
<path fill="#EDECEC" opacity="1.000000" stroke="none" 
	d="
M1.000000,600.500000 
	C1.335960,600.081604 1.598634,600.267029 1.894010,600.778076 
	C1.666667,601.000000 1.333333,601.000000 1.000000,600.500000 
z"/>
<path fill="#EDEDED" opacity="1.000000" stroke="none" 
	d="
M1920.500000,601.000000 
	C1920.098267,600.674683 1920.281738,600.408020 1920.775269,600.099976 
	C1921.000000,600.333313 1921.000000,600.666687 1920.500000,601.000000 
z"/>
<path fill="#EDEDED" opacity="1.000000" stroke="none" 
	d="
M1921.000000,1.500000 
	C1920.663330,1.919445 1920.400391,1.734294 1920.105469,1.222274 
	C1920.333374,1.000000 1920.666626,1.000000 1921.000000,1.500000 
z"/>
<path fill="#EDECEC" opacity="1.000000" stroke="none" 
	d="
M1.500000,1.000000 
	C1.902019,1.325584 1.718673,1.592530 1.224982,1.900419 
	C1.000000,1.666667 1.000000,1.333333 1.500000,1.000000 
z"/>
<path fill="#010101" opacity="1.000000" stroke="none" 
	d="
M1514.360474,359.378601 
	C1541.578369,329.804840 1574.965698,320.457153 1613.437134,327.969849 
	C1626.182983,330.458832 1636.774414,337.422302 1645.665039,346.886383 
	C1646.803955,348.098694 1647.928589,349.324432 1649.075806,350.528687 
	C1649.137207,350.593048 1649.347412,350.515472 1649.969116,350.464722 
	C1649.969116,345.100983 1650.102539,339.679199 1649.912720,334.268738 
	C1649.818115,331.568817 1650.431274,330.501251 1653.406250,330.545685 
	C1664.733276,330.714905 1676.065063,330.687164 1687.393066,330.560120 
	C1690.080078,330.529999 1691.102539,331.080170 1691.095459,334.073364 
	C1690.983032,381.723450 1691.229004,429.375549 1690.867188,477.023224 
	C1690.728516,495.263000 1683.152466,510.945862 1670.793945,524.186279 
	C1646.831909,549.858521 1617.008911,560.679504 1582.229004,558.360046 
	C1547.492188,556.043518 1520.343018,540.686646 1501.670410,510.993591 
	C1500.623901,509.329407 1499.730469,507.568970 1498.823608,505.956055 
	C1499.670166,504.296295 1500.993896,504.941376 1502.014038,504.938080 
	C1516.675659,504.890533 1531.337524,504.943909 1545.998779,504.865784 
	C1548.282227,504.853638 1550.031250,505.449341 1551.859863,506.892273 
	C1574.159790,524.489136 1607.633789,525.007080 1630.574341,508.256348 
	C1642.967896,499.206879 1648.931030,486.834320 1649.919800,471.190338 
	C1649.013916,471.894592 1648.447754,472.212372 1648.038452,472.670441 
	C1631.447754,491.239807 1610.315796,498.775909 1585.905273,497.824524 
	C1554.434204,496.597931 1529.369995,482.962036 1510.610107,457.790344 
	C1490.506836,430.815918 1489.317871,387.952820 1514.360474,359.378601 
z"/>
<path fill="#020202" opacity="1.000000" stroke="none" 
	d="
M846.755737,339.744751 
	C863.078674,326.802155 881.921204,324.735260 901.403992,325.454376 
	C912.467834,325.862732 923.261292,327.947021 933.271362,332.902679 
	C957.192078,344.744965 970.388062,363.886230 970.745972,390.755463 
	C971.181030,423.415558 970.795105,456.086060 970.958008,488.751068 
	C970.976074,492.378967 969.552795,492.748444 966.586731,492.717896 
	C954.588318,492.594452 942.584778,492.513702 930.590027,492.757782 
	C926.874756,492.833374 925.874390,491.901184 925.896790,488.097015 
	C926.072327,458.265472 925.554688,428.423767 926.140991,398.602722 
	C926.567139,376.923309 910.750977,364.046417 894.468567,363.118713 
	C872.627319,361.874329 856.078857,374.872986 853.900635,395.064575 
	C853.526306,398.535461 853.337158,402.043152 853.331421,405.534271 
	C853.286316,433.033539 853.232239,460.533295 853.394226,488.031677 
	C853.416138,491.746277 852.526062,492.847809 848.716492,492.763031 
	C836.889282,492.499908 825.048523,492.492798 813.221741,492.765839 
	C809.344727,492.855377 808.571167,491.628479 808.589722,487.985321 
	C808.738159,458.820160 808.066650,429.637756 808.842102,400.492462 
	C809.628174,370.947327 782.191528,358.846954 761.249573,364.307678 
	C745.847961,368.323761 736.168457,382.414703 736.043823,401.471039 
	C735.877075,426.969299 736.052429,452.469666 735.948669,477.968628 
	C735.929321,482.729736 738.058105,488.895569 735.040649,491.871277 
	C732.268616,494.605042 726.163452,492.579651 721.530212,492.637421 
	C713.198364,492.741272 704.854126,492.421936 696.535400,492.768127 
	C692.250366,492.946442 690.976807,491.967010 690.999023,487.382690 
	C691.209290,444.051483 691.124207,400.718781 691.124207,357.386536 
	C691.124207,349.886719 691.328552,342.378906 691.035339,334.890564 
	C690.894836,331.301971 692.046387,330.464111 695.476379,330.532745 
	C706.305115,330.749298 717.144897,330.779144 727.971802,330.520233 
	C731.638916,330.432556 732.566833,331.673615 732.244385,335.036743 
	C731.977478,337.820648 732.189758,340.650513 732.189758,343.428375 
	C732.630676,343.521545 733.094604,343.732330 733.188721,343.623444 
	C747.104248,327.528931 765.626526,324.804108 785.399353,325.413208 
	C803.862366,325.982025 819.174500,333.494385 832.120239,346.243317 
	C834.600708,348.686096 836.262024,349.248322 838.842896,346.395050 
	C841.054138,343.950439 843.904785,342.084198 846.755737,339.744751 
z"/>
<path fill="#020202" opacity="1.000000" stroke="none" 
	d="
M303.490479,399.599792 
	C314.595306,459.053680 267.340240,496.702881 223.790329,501.021179 
	C196.449585,503.732239 171.024750,499.001312 148.659225,482.178162 
	C111.828590,454.474396 103.941414,404.554535 131.305069,367.125122 
	C157.544189,331.233887 184.726883,296.032440 211.506592,260.536682 
	C212.375656,259.384735 213.030960,258.050598 214.922302,258.055878 
	C233.342270,258.107269 251.762466,258.086792 271.164124,258.086792 
	C250.796951,285.304047 230.999512,311.759949 211.099579,338.352814 
	C256.410645,336.916870 290.164917,352.515778 303.490479,399.599792 
z"/>
<path fill="#020202" opacity="1.000000" stroke="none" 
	d="
M570.948242,496.004028 
	C535.273865,501.710449 504.224487,494.122681 480.150391,466.305115 
	C445.313263,426.050934 455.171783,346.421906 528.306274,328.205475 
	C560.343323,320.225555 589.354858,327.238800 614.069336,349.829193 
	C614.751465,350.452667 615.232483,351.472076 616.897949,351.385376 
	C616.897949,345.652405 617.050537,339.897827 616.833618,334.157227 
	C616.725098,331.285919 617.654053,330.514984 620.463196,330.552368 
	C631.621521,330.700714 642.785095,330.734863 653.941895,330.537720 
	C657.228760,330.479645 658.058105,331.431488 658.041443,334.697144 
	C657.903442,361.847565 657.963196,388.998993 657.963196,416.150116 
	C657.963196,440.136383 657.866150,464.123413 658.062439,488.108063 
	C658.093750,491.934235 657.039429,492.841614 653.351685,492.754822 
	C642.696960,492.504089 632.026733,492.461975 621.375183,492.771942 
	C617.422729,492.886963 616.600647,491.570190 616.822266,487.976929 
	C617.126648,483.042236 616.898438,478.074707 616.898438,472.066284 
	C602.593201,482.878845 588.555176,492.529633 570.948242,496.004028 
z"/>
<path fill="#020202" opacity="1.000000" stroke="none" 
	d="
M1912.582520,330.639709 
	C1915.313477,331.551849 1914.305908,333.525208 1914.307495,334.987610 
	C1914.363281,386.139191 1914.333008,437.290863 1914.408203,488.442383 
	C1914.412598,491.459106 1914.015503,492.849945 1910.422119,492.762817 
	C1899.431885,492.496246 1888.429321,492.564423 1877.435181,492.729919 
	C1874.282349,492.777374 1872.959961,492.086365 1873.170044,488.618011 
	C1873.480347,483.494843 1873.250244,478.338989 1873.250244,472.287933 
	C1869.374878,475.080933 1866.095093,477.442993 1862.817017,479.807648 
	C1834.554932,500.195984 1803.762573,503.143524 1771.742920,491.340088 
	C1734.825439,477.731323 1714.985352,444.042877 1718.014771,402.595917 
	C1720.596558,367.273834 1748.604614,336.103088 1785.156982,328.012085 
	C1818.249634,320.686981 1847.524414,327.802094 1873.250366,352.401031 
	C1873.250366,345.906921 1873.486328,340.386505 1873.166748,334.898468 
	C1872.956543,331.288361 1874.208008,330.473663 1877.626953,330.535309 
	C1889.119629,330.742615 1900.618530,330.617004 1912.582520,330.639709 
z"/>
<path fill="#020202" opacity="1.000000" stroke="none" 
	d="
M1166.105957,486.821106 
	C1166.105957,463.021606 1166.064209,439.699249 1166.158081,416.377441 
	C1166.170044,413.420227 1165.455444,410.954468 1163.932373,408.434723 
	C1138.381836,366.160858 1112.902344,323.844086 1087.411255,281.534210 
	C1086.563232,280.126678 1085.761963,278.691040 1084.941772,277.273468 
	C1086.303101,275.840668 1087.889038,276.503845 1089.277954,276.497772 
	C1102.604736,276.439331 1115.936035,276.653473 1129.256348,276.354523 
	C1133.621582,276.256531 1135.976807,277.488434 1138.117920,281.468445 
	C1154.185425,311.334900 1170.543823,341.044922 1186.826660,370.795441 
	C1187.608276,372.223602 1188.049805,373.896912 1189.674316,374.990936 
	C1205.728638,345.450348 1222.089111,316.118561 1237.571655,286.330505 
	C1241.583252,278.612000 1245.877197,275.631744 1254.598755,276.236053 
	C1267.342041,277.119049 1280.191895,276.463104 1293.070557,276.463104 
	C1293.473755,278.794678 1291.868652,280.037628 1290.995972,281.489471 
	C1265.549316,323.825989 1240.072998,366.144684 1214.519775,408.416962 
	C1212.902954,411.091675 1212.155273,413.705780 1212.167358,416.826508 
	C1212.259399,440.648132 1212.149048,464.470673 1212.295288,488.291748 
	C1212.316406,491.741699 1211.444214,492.816071 1207.899170,492.752411 
	C1195.742188,492.533997 1183.572510,492.440918 1171.421509,492.787567 
	C1166.945679,492.915283 1165.265137,491.671722 1166.105957,486.821106 
z"/>
<path fill="#ED2028" opacity="1.000000" stroke="none" 
	d="
M250.875183,546.031982 
	C279.538940,537.504028 303.815155,522.845764 323.250610,500.363190 
	C356.032379,462.441895 361.575653,420.397430 342.311646,374.735565 
	C326.024261,336.129211 297.639862,309.555115 259.440277,293.059631 
	C257.928894,292.406952 256.420227,291.748077 254.223999,290.793915 
	C257.254822,286.744049 260.118347,282.991699 262.895935,279.176758 
	C264.424530,277.077271 265.949005,278.624176 267.285156,279.196198 
	C289.769989,288.821960 309.890869,302.086487 326.387299,320.153412 
	C348.092346,343.924835 362.408600,371.822510 367.598785,403.645905 
	C372.802246,435.550903 366.083923,465.436279 347.337463,491.929626 
	C317.599548,533.956665 276.633453,557.304382 225.473785,562.015198 
	C200.682373,564.297974 175.696899,564.215698 151.794281,555.868408 
	C100.948776,538.112000 65.364700,504.632568 51.910778,451.669434 
	C42.842014,415.968994 52.455498,382.766876 73.091721,352.663757 
	C73.432320,352.166870 74.054764,351.863190 74.815178,351.253143 
	C75.427147,353.682861 73.772980,354.910126 72.951126,356.339172 
	C59.446823,379.820557 51.129578,404.683990 54.449783,432.127136 
	C60.200127,479.656586 85.471802,514.082520 127.528824,535.736389 
	C166.808960,555.960510 208.240265,557.521423 250.875183,546.031982 
z"/>
<path fill="#FBAD16" opacity="1.000000" stroke="none" 
	d="
M873.241699,211.357269 
	C870.113403,215.828430 865.706543,218.475327 861.599854,221.964661 
	C859.300049,222.766251 858.800110,221.007568 858.001343,219.881027 
	C841.798828,197.029877 832.852905,171.565140 833.885193,143.580597 
	C835.413818,102.140694 852.911255,68.640274 887.060974,44.370770 
	C892.357788,40.606472 898.131409,37.580189 903.692871,33.510834 
	C911.534424,30.764587 919.351440,29.878170 927.624451,29.145870 
	C928.698364,30.189976 930.052307,31.416513 929.886536,32.382221 
	C929.244080,36.125782 931.032715,39.489792 931.106934,43.519272 
	C929.522278,46.664188 926.647217,47.246292 924.015686,48.197372 
	C908.923218,53.652103 895.385315,61.726917 884.214417,73.246231 
	C862.530029,95.606918 852.551208,122.683357 854.549316,153.639648 
	C855.629333,170.372864 860.624146,186.287201 869.884033,200.627396 
	C871.847351,203.667938 875.176697,206.547516 873.241699,211.357269 
z"/>
<path fill="#0B0707" opacity="1.000000" stroke="none" 
	d="
M1311.232910,341.236237 
	C1356.202026,308.577179 1418.806030,312.190582 1457.661011,349.454529 
	C1494.032349,384.336578 1494.254883,438.555695 1458.011230,473.523987 
	C1432.871704,497.778931 1402.319092,506.338959 1368.131470,503.524506 
	C1343.267700,501.477600 1321.434448,492.129913 1302.905762,475.327057 
	C1264.278198,440.297058 1263.639526,385.485199 1301.456055,349.562592 
	C1304.469116,346.700287 1307.777832,344.149048 1311.232910,341.236237 
z"/>
<path fill="#F9A31A" opacity="1.000000" stroke="none" 
	d="
M903.623169,33.231987 
	C903.192627,36.910923 899.795837,37.798862 897.198608,39.322735 
	C880.784973,48.953354 866.904358,61.309292 856.308777,77.161697 
	C844.689697,94.545448 838.056641,113.613029 835.829834,134.528107 
	C833.420654,157.155396 838.038757,178.302368 846.982300,198.750732 
	C850.570129,206.953964 855.921692,214.241211 861.025269,221.983994 
	C855.120789,227.682587 848.915527,233.225189 839.257385,231.364655 
	C840.967773,228.021988 840.040649,225.452377 838.121582,222.391815 
	C822.029724,196.729324 814.091919,168.673203 815.807434,138.411758 
	C817.572021,107.284561 828.720520,79.524445 848.785583,55.029690 
	C866.197083,45.293091 884.538757,38.783161 903.623169,33.231987 
z"/>
<path fill="#FBAB17" opacity="1.000000" stroke="none" 
	d="
M995.418518,43.277237 
	C995.419006,38.339520 992.214172,34.990360 990.547852,30.668989 
	C1003.335815,30.435698 1015.413452,34.215027 1027.723755,38.428131 
	C1040.931274,48.635303 1053.047485,59.411064 1062.434692,72.985069 
	C1074.825317,90.901810 1082.003906,110.679626 1084.369873,132.294434 
	C1087.768433,163.341827 1080.468018,191.742447 1063.416016,217.752365 
	C1062.114868,219.737015 1061.637573,222.052124 1060.154541,224.312393 
	C1055.000610,221.770844 1051.346313,217.564423 1047.018066,213.698624 
	C1045.027710,210.454422 1046.527344,207.977402 1048.083496,205.574722 
	C1060.588501,186.267319 1066.376221,165.033600 1065.629761,142.140976 
	C1064.858032,118.471680 1056.918091,97.302490 1042.239502,78.657310 
	C1031.307251,64.770813 1017.650085,54.473049 1001.613403,47.202202 
	C999.499207,46.243656 997.402771,45.196148 995.418518,43.277237 
z"/>
<path fill="#F9A11A" opacity="1.000000" stroke="none" 
	d="
M1060.033691,224.809677 
	C1059.412476,218.612152 1063.891846,214.853378 1066.492432,210.386826 
	C1075.835083,194.341476 1081.059326,177.179459 1083.121826,158.737610 
	C1086.006104,132.946732 1080.709839,108.874931 1068.953979,86.153961 
	C1060.700806,70.202583 1049.064819,56.849262 1034.782349,45.855801 
	C1032.321289,43.961494 1029.804688,42.054146 1028.031494,39.013470 
	C1045.114990,44.334354 1061.833008,50.875538 1076.912109,61.558380 
	C1083.474609,72.562401 1089.897583,83.237534 1094.126709,95.071793 
	C1101.555420,115.859169 1104.727173,137.097763 1102.657471,159.224518 
	C1100.458252,182.735367 1093.029785,204.286072 1080.496216,224.170883 
	C1079.237793,226.167465 1078.672241,228.443207 1077.249390,230.776855 
	C1069.861694,233.392578 1065.305176,228.503174 1060.033691,224.809677 
z"/>
<path fill="#F8981C" opacity="1.000000" stroke="none" 
	d="
M848.637085,54.763466 
	C848.568420,59.363083 844.871399,62.198570 842.483215,65.647865 
	C828.716980,85.530037 820.633301,107.347473 817.896240,131.407318 
	C814.701721,159.488968 820.534363,185.688797 832.929382,210.687515 
	C835.422974,215.716827 838.547485,220.448624 841.582214,225.188873 
	C843.567810,228.290329 843.095947,230.012482 839.139648,230.870880 
	C832.018982,230.703323 825.445312,228.599884 818.372559,227.017319 
	C812.009094,212.121857 804.837036,197.857010 801.502930,182.075607 
	C794.276794,147.871704 796.711304,114.655144 810.823364,82.063309 
	C822.243286,71.088211 834.418152,61.794617 848.637085,54.763466 
z"/>
<path fill="#F8971C" opacity="1.000000" stroke="none" 
	d="
M1077.431519,231.164581 
	C1076.012085,225.980515 1079.927002,222.814209 1082.074707,219.073334 
	C1092.706421,200.555206 1099.109619,180.874893 1101.144531,159.501801 
	C1104.335571,125.986687 1096.388794,95.458572 1078.516113,67.252693 
	C1077.589111,65.789642 1076.799316,64.433640 1077.032227,62.271843 
	C1089.652710,68.947281 1100.699463,78.022362 1110.958130,88.546280 
	C1117.297241,104.273422 1120.314941,120.427803 1121.337402,136.894516 
	C1123.292603,168.388336 1115.397339,197.793823 1101.320557,226.197357 
	C1093.474487,228.396759 1085.796875,230.467117 1077.431519,231.164581 
z"/>
<path fill="#ED2129" opacity="1.000000" stroke="none" 
	d="
M228.818329,518.366577 
	C250.770996,513.384399 270.010742,504.000977 286.919281,489.266022 
	C330.002289,451.721313 328.422333,386.865936 283.083557,351.856567 
	C266.764954,339.255798 248.469864,330.769073 227.260925,326.890137 
	C229.688919,323.615051 231.841293,320.801025 233.888016,317.912109 
	C234.867889,316.529022 236.127304,316.646149 237.445831,316.971069 
	C277.334137,326.799713 309.814087,347.026154 323.678894,387.346863 
	C337.063354,426.270569 327.073273,460.943176 296.353699,488.913300 
	C277.475464,506.101929 255.270630,516.412415 229.488007,519.702637 
	C228.711960,519.440247 228.532745,519.075867 228.818329,518.366577 
z"/>
<path fill="#ED212A" opacity="1.000000" stroke="none" 
	d="
M186.177124,519.164551 
	C145.658813,513.770935 114.194878,494.230469 97.055534,456.781128 
	C80.992706,421.683960 84.861671,387.625824 110.377174,357.366089 
	C122.040039,343.534668 136.375000,333.114685 153.152527,325.459961 
	C153.668320,325.426697 153.837723,325.501648 154.067810,325.847717 
	C146.758606,336.125366 140.039871,346.530609 130.331696,354.758575 
	C114.830017,367.896790 103.657036,384.174103 100.039658,404.550964 
	C93.576187,440.959991 106.139626,470.435669 134.375153,493.387421 
	C149.272781,505.497192 166.352722,513.703125 185.582947,518.015991 
	C186.085999,518.338623 186.213257,518.570679 186.177124,519.164551 
z"/>
<path fill="#F37720" opacity="1.000000" stroke="none" 
	d="
M1114.471436,259.202881 
	C1112.748047,255.841492 1110.235718,253.779678 1107.475098,251.906189 
	C1105.993896,250.901031 1104.643921,249.752808 1107.559814,248.659698 
	C1108.419556,248.337341 1109.489502,247.570114 1109.736816,246.779465 
	C1111.642334,240.692459 1115.440308,235.496140 1117.455688,229.348236 
	C1113.822754,228.607010 1115.222778,226.217865 1115.796875,224.668869 
	C1117.299561,220.615143 1119.000732,216.629242 1120.634766,212.621353 
	C1131.523560,185.915970 1135.563843,158.204208 1132.795654,129.496262 
	C1132.476196,126.184647 1132.353271,122.858612 1131.880005,119.555458 
	C1131.621460,117.750473 1131.594116,115.846222 1133.907959,114.744370 
	C1142.408691,124.183350 1148.487915,134.742798 1153.267822,146.473419 
	C1152.204102,185.986694 1141.835693,222.245575 1119.687866,254.826355 
	C1118.429932,256.676910 1117.593628,259.115051 1114.471436,259.202881 
z"/>
<path fill="#F5881E" opacity="1.000000" stroke="none" 
	d="
M1134.307129,114.469643 
	C1132.533691,115.933769 1132.858887,117.743362 1133.095947,119.313034 
	C1135.304199,133.932892 1135.489990,148.532242 1134.163086,163.291367 
	C1132.819946,178.232208 1129.478760,192.617523 1124.567017,206.685181 
	C1122.497437,212.612778 1119.805420,218.321945 1117.437988,224.147369 
	C1116.850220,225.593948 1115.336060,226.918015 1116.934326,228.914993 
	C1114.936768,230.599945 1112.768555,232.932190 1109.846680,230.177231 
	C1109.529907,229.878616 1108.686035,229.719772 1108.700684,229.549576 
	C1109.341675,222.184052 1104.358521,227.395248 1101.652832,226.594727 
	C1100.317383,221.568268 1103.480103,217.683380 1105.326416,213.580383 
	C1112.657349,197.290115 1117.144043,180.370575 1119.119019,162.591568 
	C1121.706543,139.298676 1118.781250,116.754990 1111.710205,94.600334 
	C1111.189087,92.967812 1110.971802,91.386795 1111.032349,89.295715 
	C1120.191650,95.993546 1128.316040,104.056595 1134.307129,114.469643 
z"/>
<path fill="#F37C2A" opacity="1.000000" stroke="none" 
	d="
M805.663086,241.725677 
	C808.084290,246.906311 810.261047,251.725876 817.531250,250.731827 
	C811.278442,253.873062 804.946167,255.847336 800.967163,261.791443 
	C800.544556,262.346313 800.137146,262.545319 799.380737,262.658569 
	C790.520081,247.925125 781.280701,233.698364 775.191345,217.722885 
	C767.360229,197.177963 762.846313,175.994171 761.661865,154.072433 
	C761.562317,152.230881 761.418396,150.424530 760.445251,148.375763 
	C764.616272,138.145599 770.294495,129.033447 776.601562,119.925339 
	C779.784912,124.179535 778.536255,129.140106 778.147644,133.775925 
	C775.939636,160.116943 780.075806,185.483658 789.188293,210.148712 
	C792.654724,219.531418 796.900513,228.561508 802.030212,237.157776 
	C802.955444,238.708176 803.699158,240.441910 805.663086,241.725677 
z"/>
<path fill="#F68D1D" opacity="1.000000" stroke="none" 
	d="
M810.682739,81.823479 
	C811.282471,83.907806 810.669312,86.006836 809.853088,87.992439 
	C800.932617,109.694664 797.812683,132.418320 799.137207,155.627167 
	C800.422913,178.156387 806.146545,199.687866 816.853455,219.735474 
	C817.907593,221.709351 819.564331,223.674774 818.045776,226.523193 
	C815.274902,226.497314 812.543396,226.127762 809.401672,225.870316 
	C805.448181,225.872772 804.405151,222.986160 803.219360,220.507416 
	C794.970642,203.263107 789.928772,185.093399 787.583557,166.131943 
	C784.855347,144.073730 787.212158,122.380920 791.964905,100.409637 
	C797.617371,93.488739 803.563416,87.292160 810.682739,81.823479 
z"/>
<path fill="#F4821F" opacity="1.000000" stroke="none" 
	d="
M791.644043,100.096619 
	C794.990601,105.007927 791.626831,109.671623 790.794250,114.318069 
	C787.878540,130.591415 787.301514,146.820175 788.874390,163.285980 
	C790.805725,183.504013 796.298828,202.602768 804.942200,220.886322 
	C805.799683,222.700272 806.612183,224.534393 808.794922,225.707932 
	C810.069702,230.972183 807.583679,232.288147 800.246765,230.098907 
	C802.272766,234.086029 804.101624,237.685318 805.953735,241.643005 
	C803.569519,242.306488 802.522827,240.842407 801.422546,238.956421 
	C789.068787,217.780945 781.335876,195.128876 777.777283,170.803101 
	C775.325439,154.042374 776.801453,137.404785 776.921753,120.217926 
	C781.027588,112.727539 786.260132,106.530991 791.644043,100.096619 
z"/>
<path fill="#F26422" opacity="1.000000" stroke="none" 
	d="
M760.039062,148.312958 
	C762.998962,147.828079 762.963440,149.644226 763.025269,151.609055 
	C763.992920,182.367081 771.881470,211.302200 786.283691,238.442520 
	C789.378296,244.274185 793.187195,249.725708 796.639526,255.369232 
	C797.831604,257.318054 799.502258,259.106934 799.028198,262.133331 
	C794.303650,262.649933 789.575562,262.727051 784.422485,262.709076 
	C770.813843,241.175858 760.193787,218.653137 754.580383,193.956039 
	C753.113892,187.503983 752.623718,180.815186 749.891235,174.268127 
	C752.436829,165.210175 755.701599,156.739044 760.039062,148.312958 
z"/>
<path fill="#F26622" opacity="1.000000" stroke="none" 
	d="
M1114.102783,259.275879 
	C1116.001953,258.934113 1116.489624,257.237823 1117.272705,256.087585 
	C1130.573730,236.550339 1140.412720,215.469208 1146.005493,192.416229 
	C1149.414795,178.362671 1150.872559,164.082031 1152.025513,149.734085 
	C1152.089722,148.934448 1152.415894,148.155838 1152.955322,147.106354 
	C1158.642944,155.347336 1161.503052,164.887619 1164.733276,174.642197 
	C1162.948608,177.165466 1162.723267,179.851624 1162.249268,182.458252 
	C1157.527954,208.423706 1148.442505,232.725204 1134.423706,255.124054 
	C1133.007324,257.387268 1131.867920,259.778595 1130.288818,262.354614 
	C1125.316650,262.673706 1120.630127,262.734314 1115.486206,262.712341 
	C1114.403687,262.129761 1114.512573,261.416992 1114.388184,260.414185 
	C1114.222900,259.908661 1114.151611,259.733612 1114.102783,259.275879 
z"/>
<path fill="#F15723" opacity="1.000000" stroke="none" 
	d="
M1130.458862,262.702820 
	C1129.777100,256.895172 1134.254761,253.407837 1136.715088,249.051422 
	C1148.721924,227.791977 1156.978516,205.267776 1161.124268,181.196564 
	C1161.488403,179.082230 1160.683472,175.961914 1164.371582,175.021393 
	C1166.250000,180.727753 1168.295288,186.293213 1169.346802,192.155548 
	C1169.880371,195.130966 1170.295410,198.048599 1170.100464,201.500565 
	C1167.306030,207.821243 1165.852783,214.190186 1163.694824,220.307526 
	C1158.513672,234.995010 1151.276367,248.658371 1143.285889,262.361450 
	C1138.975220,262.672882 1134.944946,262.732697 1130.458862,262.702820 
z"/>
<path fill="#F15623" opacity="1.000000" stroke="none" 
	d="
M749.453003,174.146072 
	C752.676270,174.358871 752.598755,176.934921 752.914185,178.881271 
	C756.167358,198.956375 762.283691,218.156006 770.895081,236.518875 
	C774.049255,243.244736 778.207092,249.505127 781.999939,255.922989 
	C783.105347,257.793488 784.434387,259.507629 783.996216,262.238037 
	C780.299072,262.678345 776.600525,262.742737 772.450317,262.712708 
	C760.646057,243.218170 751.570068,222.839874 745.535034,201.148346 
	C745.036011,199.354858 745.040710,197.544510 744.939331,195.343979 
	C745.171936,187.864059 747.899658,181.274689 749.453003,174.146072 
z"/>
<path fill="#F04925" opacity="1.000000" stroke="none" 
	d="
M744.675903,195.292542 
	C748.847656,206.510620 751.953491,218.338074 756.729675,229.604462 
	C760.430237,238.333603 764.685974,246.773804 769.377869,255.006058 
	C770.598816,257.148376 772.147278,259.203735 771.996460,262.251526 
	C768.296631,262.683014 764.594543,262.747742 760.440796,262.714325 
	C755.330078,253.709244 750.745667,244.764313 746.526123,235.639053 
	C745.692688,233.836533 744.909302,232.022873 743.471924,230.140472 
	C742.860840,218.410461 742.653931,206.981750 744.675903,195.292542 
z"/>
<path fill="#F04823" opacity="1.000000" stroke="none" 
	d="
M1143.458862,262.702606 
	C1142.993530,261.114319 1143.182129,259.773499 1144.036255,258.373230 
	C1154.205933,241.701401 1162.009277,223.990448 1167.136963,205.122162 
	C1167.481934,203.852280 1167.915894,202.540710 1169.779297,202.011353 
	C1172.808472,206.706055 1171.711670,211.996597 1172.197510,217.502045 
	C1173.698730,231.626663 1165.274414,241.941391 1160.114990,253.320969 
	C1158.766479,256.295319 1157.054688,259.146027 1155.293457,262.352783 
	C1151.307495,262.673431 1147.609863,262.732788 1143.458862,262.702606 
z"/>
<path fill="#EE3824" opacity="1.000000" stroke="none" 
	d="
M1155.458984,262.704102 
	C1154.868774,260.921600 1155.135986,259.303070 1156.067871,257.866577 
	C1161.657349,249.250641 1164.970825,239.476105 1169.979614,230.573776 
	C1172.175537,226.670853 1169.935059,222.390442 1171.795898,218.230972 
	C1173.039673,230.528076 1172.531982,243.055832 1170.339111,255.462097 
	C1169.023804,262.903778 1168.786133,262.864136 1161.369507,262.842468 
	C1159.550659,262.837189 1157.731689,262.810822 1155.458984,262.704102 
z"/>
<path fill="#F37C2A" opacity="1.000000" stroke="none" 
	d="
M1114.180908,260.497650 
	C1114.535034,260.747925 1114.775879,261.412109 1115.022827,262.352997 
	C1113.704590,262.711700 1112.380371,262.865326 1111.056152,262.865479 
	C1008.864014,262.876801 906.671875,262.876495 804.479736,262.870087 
	C803.484436,262.870026 802.489197,262.776978 801.218384,262.406586 
	C803.101562,262.017395 805.260315,261.889313 807.419067,261.889130 
	C907.787537,261.879425 1008.156067,261.887177 1108.524536,261.831787 
	C1110.360107,261.830780 1112.493286,262.796722 1114.180908,260.497650 
z"/>
<path fill="#EE3724" opacity="1.000000" stroke="none" 
	d="
M743.166931,230.250412 
	C744.693115,229.885590 745.835693,230.445312 746.374207,231.846176 
	C749.991760,241.256226 755.165222,249.913956 759.445740,259.002350 
	C759.848145,259.856812 759.816345,260.915833 759.987610,262.248047 
	C757.685425,262.691956 755.382019,262.819672 753.078003,262.833801 
	C745.954102,262.877472 745.361877,262.478516 744.251282,255.337952 
	C742.980042,247.164658 742.904968,238.910141 743.166931,230.250412 
z"/>
<path fill="#EF5C62" opacity="1.000000" stroke="none" 
	d="
M186.350464,519.708130 
	C185.995514,519.290100 185.977280,519.053772 185.958893,518.462036 
	C190.120148,518.527649 194.281540,518.948730 198.442947,519.369812 
	C194.533844,521.093445 190.596252,519.858948 186.350464,519.708130 
z"/>
<path fill="#EF5C62" opacity="1.000000" stroke="none" 
	d="
M228.632553,518.082092 
	C229.065369,518.480225 229.081802,518.831665 229.096313,519.447388 
	C225.598099,520.191895 222.105377,520.833740 218.476913,519.467468 
	C221.723343,518.990112 224.969772,518.512756 228.632553,518.082092 
z"/>
<path fill="#EF5C62" opacity="1.000000" stroke="none" 
	d="
M81.100815,343.927124 
	C79.686188,346.382477 78.180328,348.586029 76.390717,350.965088 
	C75.907547,350.870941 75.681488,350.625854 75.255295,350.224121 
	C76.713455,347.977478 78.345070,345.912079 80.245728,343.658478 
	C80.679710,343.538605 80.844643,343.606964 81.100815,343.927124 
z"/>
<path fill="#EDECEC" opacity="1.000000" stroke="none" 
	d="
M86.684357,337.059753 
	C86.926880,338.514282 86.339523,339.605927 84.422012,339.917572 
	C84.053375,338.377411 84.802597,337.425323 86.684357,337.059753 
z"/>
<path fill="#ED2028" opacity="1.000000" stroke="none" 
	d="
M74.919205,350.434204 
	C75.349449,350.250916 75.617050,350.458984 75.995804,350.903839 
	C75.537872,351.545563 75.087563,351.441284 74.919205,350.434204 
z"/>
<path fill="#EF5C62" opacity="1.000000" stroke="none" 
	d="
M80.679352,343.651978 
	C80.898254,343.307495 81.281723,343.144775 81.665199,342.982056 
	C81.677567,343.270325 81.689934,343.558594 81.447174,344.012878 
	C81.192039,344.178925 80.843910,343.833679 80.679352,343.651978 
z"/>
<path fill="#EF5C62" opacity="1.000000" stroke="none" 
	d="
M82.851974,341.246765 
	C82.990242,341.550171 82.680016,341.758545 82.369781,341.966949 
	C82.381020,341.695221 82.392250,341.423523 82.851974,341.246765 
z"/>
<path fill="#EF5C62" opacity="1.000000" stroke="none" 
	d="
M84.107590,339.971191 
	C84.042831,340.312775 83.932381,340.679840 83.561203,341.194336 
	C83.300476,341.341766 83.129463,341.143860 83.041748,341.046722 
	C83.133827,340.641876 83.313629,340.334198 83.763199,339.961304 
	C84.032959,339.896088 84.061897,339.996674 84.107590,339.971191 
z"/>
<path fill="#EDECEC" opacity="1.000000" stroke="none" 
	d="
M87.791153,336.105103 
	C88.040100,336.451019 87.847672,336.712402 87.331848,336.997742 
	C87.105003,337.092834 87.007347,337.003113 86.961021,336.953125 
	C86.992859,336.567810 87.170067,336.297302 87.791153,336.105103 
z"/>
<path fill="#EDECEC" opacity="1.000000" stroke="none" 
	d="
M87.949097,335.937195 
	C88.006660,335.559204 88.198418,335.301056 88.802200,335.105713 
	C89.033424,335.434753 88.842613,335.694122 88.351227,336.004639 
	C88.135971,336.118530 88.007965,336.001068 87.949097,335.937195 
z"/>
<path fill="#EDECEC" opacity="1.000000" stroke="none" 
	d="
M88.957565,334.938965 
	C89.079964,334.809052 89.327103,334.005951 89.276703,335.018707 
	C89.138908,335.112579 89.014130,335.000763 88.957565,334.938965 
z"/>
<path fill="#EDECEC" opacity="1.000000" stroke="none" 
	d="
M92.852180,332.066193 
	C92.929001,332.106659 92.759041,332.989624 92.852180,332.066193 
z"/>
<path fill="#EDECEC" opacity="1.000000" stroke="none" 
	d="
M92.958229,331.947327 
	C93.027084,331.587616 93.210442,331.323730 93.798920,331.108337 
	C93.999832,331.414368 93.796143,331.662903 93.301239,331.960205 
	C93.084625,332.070129 92.997643,331.990967 92.958229,331.947327 
z"/>
<path fill="#EDECEC" opacity="1.000000" stroke="none" 
	d="
M93.947083,330.928528 
	C94.078079,330.753296 94.325043,330.009766 94.273193,331.010071 
	C94.128944,331.104706 94.003922,330.991028 93.947083,330.928528 
z"/>
<path fill="#ED212A" opacity="1.000000" stroke="none" 
	d="
M153.645508,325.552429 
	C153.877899,325.290497 154.256866,325.229218 154.635834,325.167938 
	C154.630936,325.412506 154.626038,325.657043 154.374817,326.010254 
	C154.128479,326.118866 153.792068,325.753082 153.645508,325.552429 
z"/>
<path fill="#FDB811" opacity="1.000000" stroke="none" 
	d="
M873.565186,211.540604 
	C873.535583,207.764771 871.149109,204.792603 869.171204,201.809631 
	C860.650024,188.958771 856.065735,174.734497 853.995789,159.594940 
	C850.082947,130.976379 857.544006,105.231606 874.529907,82.292976 
	C886.915344,65.567078 903.656250,54.372284 923.074463,47.093674 
	C925.541443,46.168968 927.943359,45.070522 930.746704,44.006268 
	C933.751221,46.998997 936.781921,49.844151 935.922363,54.497753 
	C935.809082,55.111176 935.983948,55.920784 936.767029,56.064346 
	C940.441040,56.737881 939.921021,59.627907 940.005981,62.590378 
	C935.448730,66.782211 929.481873,67.038139 924.412842,69.547974 
	C896.322632,83.456276 879.034973,105.058990 875.128906,136.739807 
	C872.702515,156.420044 877.252014,174.330292 887.546265,191.014038 
	C888.594543,192.712967 889.636475,194.419632 890.214600,196.763245 
	C884.826721,201.870255 879.349609,206.603104 873.565186,211.540604 
z"/>
<path fill="#FEC509" opacity="1.000000" stroke="none" 
	d="
M890.612549,197.018433 
	C883.388794,188.876984 878.981750,179.240204 876.250488,169.009552 
	C868.839966,141.252625 873.852661,115.568344 891.737122,93.147369 
	C902.545349,79.597420 916.348450,69.498779 933.550537,64.914368 
	C935.457825,64.406059 937.300049,63.653988 939.557068,63.009850 
	C940.175049,63.789955 940.390076,65.253441 940.644470,65.260345 
	C945.845642,65.401413 946.892761,69.138428 947.095886,73.078171 
	C947.353210,78.067101 946.294800,82.814674 941.418152,85.500580 
	C933.694519,89.754547 925.881409,93.580940 916.741943,94.121559 
	C909.388245,94.556557 903.289062,101.765648 903.278381,109.209305 
	C903.245483,132.148758 903.039795,155.092499 903.444031,178.024994 
	C903.552795,184.194168 900.932434,188.209595 896.629700,191.516846 
	C894.504761,193.150177 892.684143,194.957291 890.612549,197.018433 
z"/>
<path fill="#FCB413" opacity="1.000000" stroke="none" 
	d="
M995.038513,43.403736 
	C1004.623779,46.568588 1013.493164,51.303368 1021.692017,57.234081 
	C1045.880005,74.730614 1060.508301,98.520203 1065.537109,127.653473 
	C1070.213013,154.741440 1065.052979,180.438400 1050.578247,204.053253 
	C1048.953369,206.704056 1046.584595,209.070557 1046.900391,212.997116 
	C1041.699341,210.199524 1038.123901,205.129181 1033.014771,201.367157 
	C1032.990479,198.078995 1034.723145,195.772156 1036.183350,193.372574 
	C1044.869019,179.098633 1049.661011,163.417633 1049.508057,146.917252 
	C1049.154907,108.797272 1028.233032,76.619202 992.786133,61.523903 
	C990.042114,60.355335 987.153931,59.462917 984.601196,57.153343 
	C985.339905,51.358368 986.312744,45.869789 987.451538,39.444656 
	C989.526306,42.237926 988.463623,44.697941 989.337036,46.827625 
	C990.917175,46.702225 990.621277,44.966381 991.665039,44.032215 
	C992.938171,46.649990 990.776245,49.949020 993.605164,52.269024 
	C994.045532,49.466393 994.490417,46.634666 995.038513,43.403736 
z"/>
<path fill="#FDBE0E" opacity="1.000000" stroke="none" 
	d="
M984.226501,57.161858 
	C997.276306,61.412262 1009.138977,67.626083 1019.502808,76.856522 
	C1034.364258,90.092659 1043.734009,106.332817 1048.325928,125.543060 
	C1054.127441,149.813629 1049.524414,172.415970 1037.496704,193.845535 
	C1036.201172,196.153900 1034.798950,198.402405 1033.154175,200.871613 
	C1029.358887,198.207855 1025.855591,195.351120 1022.196472,192.196930 
	C1021.175659,189.542267 1022.478210,187.713364 1023.541138,185.840546 
	C1036.562378,162.898804 1038.493652,139.102005 1027.924194,114.880173 
	C1020.028625,96.785995 1006.602295,83.718681 988.502869,75.613174 
	C986.523621,74.726799 984.546936,73.855400 982.521240,72.307053 
	C981.036194,70.214630 980.709900,68.189186 980.739380,65.675873 
	C980.807617,65.068855 980.894287,64.853561 981.232422,64.397530 
	C983.687134,65.045486 985.794128,66.895638 988.845276,64.427811 
	C983.933472,64.073746 981.808533,62.032993 984.226501,57.161858 
z"/>
<path fill="#FCC507" opacity="1.000000" stroke="none" 
	d="
M982.135742,72.316208 
	C990.715271,74.154915 998.148804,78.514633 1004.886536,83.684402 
	C1019.364990,94.793594 1029.075928,109.306091 1033.559204,127.148575 
	C1038.831543,148.131592 1035.184326,167.777740 1024.774780,186.434128 
	C1023.895630,188.009705 1023.137817,189.652954 1022.182251,191.582153 
	C1016.944153,188.872665 1014.742126,184.832245 1014.878296,178.487961 
	C1015.324951,157.690506 1015.182739,136.876007 1014.957275,116.071419 
	C1014.895325,110.352188 1013.000427,104.779709 1010.853699,99.502251 
	C1008.994324,94.931183 1004.534485,92.771347 1000.046936,92.437897 
	C992.943298,91.910057 987.052429,88.003082 980.290405,86.488571 
	C972.594177,84.764839 970.379028,77.550232 974.294739,72.005920 
	C977.654236,67.249100 979.409729,73.054939 982.135742,72.316208 
z"/>
<path fill="#F4E114" opacity="1.000000" stroke="none" 
	d="
M913.685547,200.011917 
	C920.910156,191.912003 923.072449,182.597748 922.954468,172.464172 
	C922.854553,163.882217 922.933838,155.298157 922.933838,146.298004 
	C926.417419,149.272751 927.063599,153.359665 927.930786,157.232086 
	C931.737488,174.230347 927.477051,189.793106 919.269531,204.618713 
	C918.716553,205.617630 918.244873,206.661621 917.465698,207.891464 
	C912.749573,207.077850 913.804688,203.439529 913.685547,200.011917 
z"/>
<path fill="#F0DF13" opacity="1.000000" stroke="none" 
	d="
M1004.137329,215.091675 
	C993.767944,195.804642 989.457458,174.949295 990.228149,153.045456 
	C990.378601,148.768951 993.927002,145.393799 994.061523,140.928482 
	C994.710754,140.977859 995.359985,141.027237 996.009216,141.076614 
	C996.009216,153.913864 995.928528,166.751862 996.044312,179.588058 
	C996.099915,185.747925 996.992065,191.675369 1001.075500,196.823288 
	C1002.176025,198.210587 1003.730286,198.680954 1004.918457,200.280334 
	C1003.125305,205.245636 1004.897400,210.083145 1004.137329,215.091675 
z"/>
<path fill="#F5CD19" opacity="1.000000" stroke="none" 
	d="
M1003.887817,215.707535 
	C1003.669678,211.402512 1001.202087,207.617905 1002.989258,203.465256 
	C1003.368408,202.584335 1003.317139,201.527328 1004.700195,200.768799 
	C1009.352905,203.753342 1013.579041,206.915237 1017.972046,210.358551 
	C1019.673767,214.698578 1018.617615,218.644287 1017.326477,222.963760 
	C1011.234253,223.481598 1006.114929,222.404739 1003.887817,215.707535 
z"/>
<path fill="#F5CD19" opacity="1.000000" stroke="none" 
	d="
M913.513367,199.745575 
	C915.540283,202.018539 914.350281,205.424210 916.879822,207.887421 
	C914.127869,214.687256 910.432922,220.662018 902.483948,222.940720 
	C899.780945,223.111038 899.781860,221.171768 899.674866,219.693512 
	C899.478149,216.974426 898.550903,214.253708 899.654541,211.081177 
	C904.308350,207.071747 908.754700,203.482819 913.513367,199.745575 
z"/>
<path fill="#F0B21E" opacity="1.000000" stroke="none" 
	d="
M899.531616,210.773117 
	C900.418579,214.624420 900.975159,218.588196 901.846924,222.824875 
	C896.827820,226.370163 890.860901,227.943649 884.488098,229.579559 
	C882.123474,227.550354 882.391541,225.275940 883.757935,222.484787 
	C889.079773,218.322327 894.140503,214.603943 899.531616,210.773117 
z"/>
<path fill="#F0B21E" opacity="1.000000" stroke="none" 
	d="
M1017.309631,223.542542 
	C1016.930725,219.365814 1016.838135,215.397537 1018.072021,211.086395 
	C1023.885315,213.859512 1029.111938,217.834763 1034.661133,221.957916 
	C1036.341553,224.489929 1035.513062,226.725449 1034.244019,229.261505 
	C1028.098877,228.680725 1023.240479,225.096130 1017.309631,223.542542 
z"/>
<path fill="#E38E24" opacity="1.000000" stroke="none" 
	d="
M1034.217163,229.740021 
	C1034.004517,227.322586 1033.872925,225.045120 1034.919678,222.527435 
	C1042.083496,226.362396 1049.196899,230.599228 1056.310425,234.836060 
	C1056.182617,235.170868 1056.054810,235.505661 1055.927002,235.840469 
	C1048.790039,233.864075 1041.653198,231.887665 1034.217163,229.740021 
z"/>
<path fill="#E4752E" opacity="1.000000" stroke="none" 
	d="
M820.386230,232.692017 
	C821.220947,232.985474 821.734863,233.066330 822.167175,233.298828 
	C824.013489,234.291580 827.469055,234.163605 827.509094,236.151962 
	C827.560730,238.718765 823.903748,238.262436 822.093140,239.526840 
	C819.684387,241.208939 816.716248,238.316589 814.233032,240.476181 
	C813.919556,240.748749 812.884277,239.244339 812.876587,238.173950 
	C812.858765,235.692795 812.870972,233.211411 812.870972,229.906601 
	C815.559021,230.899124 817.793396,231.724152 820.386230,232.692017 
z"/>
<path fill="#DE722C" opacity="1.000000" stroke="none" 
	d="
M1104.884766,237.562683 
	C1104.698853,238.746704 1104.513062,239.522385 1104.327393,240.298065 
	C1100.369995,238.767822 1095.641724,241.063263 1092.030640,237.825027 
	C1090.481079,236.435425 1090.591919,235.381973 1092.640747,234.636856 
	C1094.504272,233.959152 1096.335571,233.192886 1098.181885,232.467880 
	C1104.884888,229.835709 1104.885010,229.836044 1104.884766,237.562683 
z"/>
<path fill="#E38E24" opacity="1.000000" stroke="none" 
	d="
M883.673218,222.100998 
	C884.024170,224.249924 884.029358,226.459122 884.056519,229.150085 
	C877.754456,231.665741 870.844177,231.587448 864.528320,235.018005 
	C863.733887,235.366058 863.362732,235.302155 863.057800,234.544617 
	C869.818115,230.188782 876.572754,226.175018 883.673218,222.100998 
z"/>
<path fill="#DE722C" opacity="1.000000" stroke="none" 
	d="
M862.759155,234.281799 
	C863.209778,234.501541 863.430237,234.728516 863.945251,234.981003 
	C862.885742,236.291748 861.370728,236.966248 859.284180,237.003326 
	C860.126648,236.079391 861.290710,235.220230 862.759155,234.281799 
z"/>
<path fill="#FCB413" opacity="1.000000" stroke="none" 
	d="
M992.017944,44.016609 
	C991.963989,43.534252 991.762268,42.982388 992.524963,42.814209 
	C992.515076,43.219933 992.505188,43.625656 992.225464,43.994858 
	C991.955627,43.958340 991.996826,43.997528 992.017944,44.016609 
z"/>
<path fill="#DE722C" opacity="1.000000" stroke="none" 
	d="
M858.906006,236.891251 
	C858.891357,236.870865 858.847900,237.366898 858.847900,237.366898 
	C858.847900,237.366898 858.825378,237.152588 858.893982,237.045563 
	C858.962585,236.938538 858.920715,236.911636 858.906006,236.891251 
z"/>
<path fill="#FDBE0E" opacity="1.000000" stroke="none" 
	d="
M979.945679,64.294937 
	C980.256104,63.957840 980.610901,63.856194 981.224792,63.955666 
	C981.369385,64.353195 981.254761,64.549606 980.930542,65.015091 
	C980.477234,65.032898 980.233582,64.781639 979.945679,64.294937 
z"/>
<path fill="#FDBE0E" opacity="1.000000" stroke="none" 
	d="
M979.993103,64.005402 
	C979.829895,63.773369 979.637390,63.561447 979.444824,63.349533 
	C979.709045,63.459614 979.973328,63.569691 980.069458,63.869629 
	C979.901367,64.059494 979.963806,64.025513 979.993103,64.005402 
z"/>
<path fill="#FDFDFD" opacity="1.000000" stroke="none" 
	d="
M1597.811035,459.850800 
	C1585.283325,459.994690 1573.845337,457.596588 1563.615601,450.948029 
	C1548.119995,440.877075 1539.127686,426.965454 1540.506104,408.013031 
	C1541.972778,387.848541 1553.553223,374.470032 1571.673828,367.132019 
	C1588.908325,360.152832 1606.397827,361.481628 1622.802612,370.147522 
	C1640.478516,379.484985 1650.330811,394.171967 1648.772095,414.701447 
	C1647.229492,435.019196 1635.367920,448.069183 1617.235962,455.958496 
	C1611.225220,458.573792 1604.778931,459.446625 1597.811035,459.850800 
z"/>
<path fill="#F9F8F3" opacity="1.000000" stroke="none" 
	d="
M237.351196,385.597931 
	C252.200073,395.985840 258.708191,409.935760 254.919296,427.307617 
	C251.018005,445.194855 237.927979,454.710754 221.010452,458.768707 
	C206.115295,462.341522 191.780334,460.350922 179.568192,450.127899 
	C165.902924,438.688477 161.697815,423.980835 166.154419,407.009491 
	C170.054688,392.156555 185.383682,379.721924 201.085068,378.019958 
	C213.824860,376.639008 225.996887,378.385284 237.351196,385.597931 
z"/>
<path fill="#FEFEFE" opacity="1.000000" stroke="none" 
	d="
M592.539734,371.379730 
	C610.670349,383.130493 618.741882,401.521088 614.659729,421.294586 
	C610.819336,439.896881 594.017212,455.378784 573.782104,458.956268 
	C562.259644,460.993378 550.872070,460.545013 539.782837,456.656250 
	C519.001282,449.368561 505.762878,431.591644 505.909729,411.419464 
	C506.056427,391.268433 519.929810,372.696411 540.550171,366.099701 
	C558.364624,360.400543 575.704956,362.377228 592.539734,371.379730 
z"/>
<path fill="#FEFEFE" opacity="1.000000" stroke="none" 
	d="
M1814.158447,363.070251 
	C1823.004150,362.999664 1831.259521,363.897675 1839.148682,366.839844 
	C1858.081909,373.900543 1869.975342,386.902679 1871.772827,407.516205 
	C1873.594849,428.410339 1863.941406,443.430817 1846.080200,453.332672 
	C1823.894165,465.632111 1793.360962,461.235016 1775.744751,443.616302 
	C1758.603149,426.472473 1757.713623,399.955017 1773.764771,381.779388 
	C1784.346191,369.797394 1797.719849,363.629211 1814.158447,363.070251 
z"/>
<path fill="#EB1B24" opacity="1.000000" stroke="none" 
	d="
M1357.533203,327.349060 
	C1380.445679,323.534180 1402.611328,324.532532 1423.545410,334.116241 
	C1450.806885,346.596649 1471.006226,365.982422 1476.772827,396.556305 
	C1482.863892,428.850281 1471.515137,455.133881 1446.141235,475.584015 
	C1402.607056,510.670685 1332.548462,503.704071 1297.846191,460.869415 
	C1272.222900,429.241394 1274.643433,385.284180 1303.457275,356.463837 
	C1318.488037,341.429535 1336.242798,331.596832 1357.533203,327.349060 
z"/>
<path fill="#FFCB06" opacity="1.000000" stroke="none" 
	d="
M193.696045,451.514160 
	C176.525787,444.173279 167.860611,428.610718 171.198837,411.581818 
	C174.195618,396.294647 189.165787,384.332245 205.967255,383.763794 
	C217.281143,383.380981 227.807983,385.616425 236.912735,392.803986 
	C253.555618,405.942413 254.475906,429.266571 238.505463,443.191162 
	C225.480484,454.547577 210.356461,456.630585 193.696045,451.514160 
z"/>
<path fill="#0B0707" opacity="1.000000" stroke="none" 
	d="
M1433.023193,404.088348 
	C1435.889648,426.877808 1424.850952,446.407715 1403.325195,455.059753 
	C1382.074341,463.601288 1361.456299,461.831818 1342.976685,447.542358 
	C1318.965698,428.975739 1318.709839,395.795776 1342.071045,376.304535 
	C1364.860840,357.290100 1400.661133,359.180847 1421.112915,380.485626 
	C1427.385986,387.020264 1431.453003,394.691345 1433.023193,404.088348 
z"/>
<path fill="#FEFEFE" opacity="1.000000" stroke="none" 
	d="
M1396.810913,451.012329 
	C1376.582397,456.493988 1358.351807,454.050934 1343.145264,439.248383 
	C1327.225708,423.751556 1327.408936,399.535278 1343.166382,383.841553 
	C1359.546387,367.527771 1388.368164,364.592590 1407.729004,377.469452 
	C1421.249634,386.462067 1428.471558,398.918854 1426.916016,415.490173 
	C1425.418701,431.441162 1415.898071,441.730865 1402.271729,448.833862 
	C1400.658203,449.674988 1398.894043,450.227356 1396.810913,451.012329 
z"/>
</svg>